<?xml version="1.0" encoding="UTF-8" standalone="no"?>
<!DOCTYPE svg PUBLIC "-//W3C//DTD SVG 1.1//EN" "http://www.w3.org/Graphics/SVG/1.1/DTD/svg11.dtd">
<svg width="100%" height="100%" viewBox="0 0 140 35" version="1.1" xmlns="http://www.w3.org/2000/svg" xmlns:xlink="http://www.w3.org/1999/xlink" xml:space="preserve" xmlns:serif="http://www.serif.com/" style="fill-rule:evenodd;clip-rule:evenodd;stroke-linecap:round;stroke-linejoin:round;">
    <g id="Artboard1" transform="matrix(1,0,0,1,0.795072,1.62034)">
        <rect x="-0.795" y="-1.62" width="139.262" height="34.426" style="fill:none;"/>
        <g transform="matrix(0.0123783,0,0,0.0123783,10.2223,26.2918)">
            <g transform="matrix(86.3318,0,0,86.3318,-3036.17,-1263.57)">
                <g transform="matrix(25,0,0,25,56.5969,14.0556)">
                    <path d="M0.05,-0L0.05,-0.545L0.246,-0.545L0.246,-0L0.05,-0ZM0.148,-0.602C0.121,-0.602 0.098,-0.611 0.08,-0.629C0.061,-0.646 0.051,-0.667 0.051,-0.692C0.051,-0.716 0.061,-0.737 0.08,-0.755C0.099,-0.772 0.121,-0.781 0.148,-0.781C0.174,-0.781 0.197,-0.772 0.216,-0.755C0.235,-0.737 0.244,-0.716 0.244,-0.692C0.244,-0.667 0.235,-0.646 0.216,-0.629C0.197,-0.611 0.175,-0.602 0.148,-0.602Z" style="fill:rgb(247,190,22);fill-rule:nonzero;"/>
                </g>
                <g transform="matrix(25,0,0,25,62.8082,14.0556)">
                    <path d="M0.548,-0.368L0.368,-0.368C0.367,-0.379 0.363,-0.389 0.356,-0.397C0.349,-0.405 0.34,-0.411 0.33,-0.415C0.319,-0.42 0.307,-0.422 0.294,-0.422C0.277,-0.422 0.263,-0.419 0.251,-0.413C0.239,-0.406 0.233,-0.398 0.233,-0.386C0.233,-0.378 0.236,-0.371 0.243,-0.364C0.251,-0.357 0.265,-0.352 0.286,-0.348L0.396,-0.328C0.452,-0.318 0.494,-0.301 0.521,-0.277C0.548,-0.253 0.562,-0.221 0.563,-0.18C0.562,-0.142 0.551,-0.108 0.528,-0.079C0.505,-0.051 0.474,-0.029 0.434,-0.013C0.395,0.002 0.35,0.01 0.3,0.01C0.216,0.01 0.151,-0.007 0.104,-0.041C0.057,-0.075 0.031,-0.12 0.026,-0.176L0.22,-0.176C0.223,-0.159 0.231,-0.146 0.246,-0.136C0.26,-0.127 0.279,-0.122 0.301,-0.122C0.319,-0.122 0.334,-0.125 0.346,-0.131C0.357,-0.138 0.363,-0.146 0.364,-0.158C0.363,-0.168 0.358,-0.176 0.348,-0.183C0.338,-0.189 0.322,-0.194 0.301,-0.197L0.205,-0.214C0.149,-0.224 0.107,-0.243 0.08,-0.27C0.052,-0.297 0.038,-0.332 0.038,-0.375C0.038,-0.413 0.048,-0.445 0.068,-0.471C0.089,-0.498 0.118,-0.518 0.155,-0.532C0.193,-0.546 0.238,-0.553 0.29,-0.553C0.369,-0.553 0.431,-0.536 0.476,-0.504C0.522,-0.471 0.546,-0.426 0.548,-0.368Z" style="fill:rgb(247,190,22);fill-rule:nonzero;"/>
                </g>
                <g transform="matrix(25,0,0,25,76.3349,14.0556)">
                    <path d="M0.313,0.01C0.253,0.01 0.203,-0.002 0.161,-0.025C0.118,-0.049 0.086,-0.082 0.064,-0.124C0.041,-0.166 0.03,-0.215 0.03,-0.271C0.03,-0.327 0.041,-0.376 0.064,-0.419C0.086,-0.461 0.118,-0.494 0.161,-0.517C0.203,-0.541 0.253,-0.553 0.313,-0.553C0.372,-0.553 0.422,-0.541 0.464,-0.517C0.507,-0.494 0.539,-0.461 0.561,-0.419C0.584,-0.376 0.595,-0.327 0.595,-0.271C0.595,-0.215 0.584,-0.166 0.561,-0.124C0.539,-0.082 0.507,-0.049 0.464,-0.025C0.422,-0.002 0.372,0.01 0.313,0.01ZM0.314,-0.135C0.33,-0.135 0.345,-0.141 0.357,-0.152C0.369,-0.163 0.378,-0.179 0.385,-0.199C0.392,-0.22 0.395,-0.244 0.395,-0.273C0.395,-0.301 0.392,-0.326 0.385,-0.346C0.378,-0.367 0.369,-0.383 0.357,-0.394C0.345,-0.405 0.33,-0.411 0.314,-0.411C0.296,-0.411 0.281,-0.405 0.269,-0.394C0.256,-0.383 0.247,-0.367 0.24,-0.346C0.233,-0.326 0.23,-0.301 0.23,-0.273C0.23,-0.244 0.233,-0.22 0.24,-0.199C0.247,-0.179 0.256,-0.163 0.269,-0.152C0.281,-0.141 0.296,-0.135 0.314,-0.135Z" style="fill:rgb(247,190,22);fill-rule:nonzero;"/>
                </g>
                <g transform="matrix(25,0,0,25,90.7849,14.0556)">
                    <path d="M0.313,0.01C0.253,0.01 0.203,-0.002 0.161,-0.025C0.118,-0.049 0.086,-0.082 0.064,-0.124C0.041,-0.166 0.03,-0.215 0.03,-0.271C0.03,-0.327 0.041,-0.376 0.064,-0.419C0.086,-0.461 0.118,-0.494 0.161,-0.517C0.203,-0.541 0.253,-0.553 0.313,-0.553C0.366,-0.553 0.412,-0.543 0.452,-0.524C0.491,-0.504 0.521,-0.477 0.543,-0.442C0.564,-0.407 0.575,-0.366 0.575,-0.318L0.393,-0.318C0.391,-0.347 0.383,-0.369 0.369,-0.384C0.355,-0.399 0.337,-0.406 0.315,-0.406C0.298,-0.406 0.283,-0.401 0.271,-0.392C0.258,-0.382 0.248,-0.367 0.241,-0.347C0.234,-0.327 0.23,-0.303 0.23,-0.273C0.23,-0.243 0.234,-0.218 0.241,-0.198C0.248,-0.179 0.258,-0.164 0.271,-0.154C0.283,-0.144 0.298,-0.139 0.315,-0.139C0.33,-0.139 0.343,-0.143 0.354,-0.149C0.365,-0.156 0.374,-0.166 0.381,-0.179C0.388,-0.192 0.392,-0.208 0.393,-0.227L0.575,-0.227C0.575,-0.179 0.564,-0.137 0.542,-0.102C0.521,-0.066 0.491,-0.039 0.452,-0.019C0.413,0 0.366,0.01 0.313,0.01Z" style="fill:rgb(245,245,245);fill-rule:nonzero;"/>
                </g>
                <g transform="matrix(25,0,0,25,104.773,14.0556)">
                    <path d="M0.202,0.009C0.167,0.009 0.136,0.003 0.11,-0.009C0.083,-0.02 0.062,-0.038 0.047,-0.061C0.032,-0.085 0.024,-0.114 0.024,-0.151C0.024,-0.18 0.029,-0.206 0.039,-0.227C0.05,-0.248 0.064,-0.266 0.082,-0.279C0.1,-0.293 0.122,-0.303 0.146,-0.31C0.17,-0.317 0.196,-0.322 0.224,-0.324C0.255,-0.326 0.28,-0.329 0.298,-0.333C0.317,-0.336 0.33,-0.341 0.338,-0.347C0.347,-0.353 0.351,-0.362 0.351,-0.372L0.351,-0.374C0.351,-0.388 0.345,-0.399 0.335,-0.406C0.324,-0.414 0.31,-0.418 0.293,-0.418C0.274,-0.418 0.259,-0.414 0.247,-0.405C0.235,-0.397 0.228,-0.385 0.226,-0.368L0.045,-0.368C0.048,-0.401 0.058,-0.432 0.077,-0.46C0.096,-0.488 0.124,-0.51 0.16,-0.527C0.196,-0.544 0.241,-0.553 0.295,-0.553C0.335,-0.553 0.37,-0.548 0.401,-0.539C0.432,-0.53 0.458,-0.517 0.48,-0.501C0.502,-0.485 0.518,-0.466 0.53,-0.444C0.541,-0.422 0.547,-0.399 0.547,-0.374L0.547,-0L0.364,-0L0.364,-0.077L0.359,-0.077C0.348,-0.056 0.335,-0.04 0.32,-0.027C0.304,-0.015 0.287,-0.006 0.267,-0C0.247,0.006 0.225,0.009 0.202,0.009ZM0.266,-0.115C0.281,-0.115 0.295,-0.118 0.308,-0.124C0.321,-0.13 0.332,-0.139 0.34,-0.151C0.348,-0.163 0.352,-0.177 0.352,-0.193L0.352,-0.239C0.347,-0.237 0.342,-0.234 0.336,-0.233C0.33,-0.231 0.324,-0.229 0.317,-0.227C0.311,-0.226 0.304,-0.224 0.297,-0.223C0.289,-0.221 0.282,-0.22 0.274,-0.219C0.259,-0.216 0.247,-0.213 0.237,-0.207C0.227,-0.202 0.22,-0.195 0.216,-0.188C0.211,-0.18 0.209,-0.171 0.209,-0.162C0.209,-0.147 0.214,-0.135 0.225,-0.127C0.235,-0.119 0.249,-0.115 0.266,-0.115Z" style="fill:rgb(245,245,245);fill-rule:nonzero;"/>
                </g>
                <g transform="matrix(25,0,0,25,118.371,14.0556)">
                    <path d="M0.05,-0L0.05,-0.545L0.24,-0.545L0.24,-0.442L0.246,-0.442C0.256,-0.48 0.271,-0.508 0.293,-0.526C0.315,-0.544 0.34,-0.553 0.369,-0.553C0.378,-0.553 0.386,-0.552 0.395,-0.551C0.403,-0.549 0.411,-0.547 0.419,-0.545L0.419,-0.378C0.409,-0.381 0.397,-0.384 0.383,-0.385C0.369,-0.387 0.357,-0.388 0.347,-0.388C0.327,-0.388 0.31,-0.383 0.295,-0.375C0.28,-0.366 0.268,-0.354 0.259,-0.339C0.25,-0.323 0.246,-0.305 0.246,-0.284L0.246,-0L0.05,-0Z" style="fill:rgb(245,245,245);fill-rule:nonzero;"/>
                </g>
                <g transform="matrix(25,0,0,25,128.595,14.0556)">
                    <path d="M0.375,-0.545L0.375,-0.403L0.016,-0.403L0.016,-0.545L0.375,-0.545ZM0.085,-0.676L0.281,-0.676L0.281,-0.175C0.281,-0.168 0.283,-0.162 0.285,-0.156C0.288,-0.151 0.292,-0.148 0.297,-0.145C0.303,-0.143 0.31,-0.141 0.318,-0.141C0.324,-0.141 0.331,-0.142 0.339,-0.143C0.347,-0.145 0.353,-0.146 0.357,-0.147L0.385,-0.009C0.376,-0.007 0.364,-0.003 0.347,0C0.331,0.004 0.312,0.007 0.29,0.008C0.245,0.01 0.207,0.006 0.176,-0.006C0.146,-0.018 0.123,-0.036 0.108,-0.062C0.092,-0.087 0.085,-0.119 0.085,-0.157L0.085,-0.676Z" style="fill:rgb(245,245,245);fill-rule:nonzero;"/>
                </g>
                <g transform="matrix(25,0,0,25,137.399,14.0556)">
                    <path d="M0.313,0.01C0.253,0.01 0.203,-0.002 0.161,-0.025C0.118,-0.049 0.086,-0.082 0.064,-0.124C0.041,-0.166 0.03,-0.215 0.03,-0.271C0.03,-0.327 0.041,-0.376 0.064,-0.419C0.086,-0.461 0.118,-0.494 0.161,-0.517C0.203,-0.541 0.253,-0.553 0.313,-0.553C0.372,-0.553 0.422,-0.541 0.464,-0.517C0.507,-0.494 0.539,-0.461 0.561,-0.419C0.584,-0.376 0.595,-0.327 0.595,-0.271C0.595,-0.215 0.584,-0.166 0.561,-0.124C0.539,-0.082 0.507,-0.049 0.464,-0.025C0.422,-0.002 0.372,0.01 0.313,0.01ZM0.314,-0.135C0.33,-0.135 0.345,-0.141 0.357,-0.152C0.369,-0.163 0.378,-0.179 0.385,-0.199C0.392,-0.22 0.395,-0.244 0.395,-0.273C0.395,-0.301 0.392,-0.326 0.385,-0.346C0.378,-0.367 0.369,-0.383 0.357,-0.394C0.345,-0.405 0.33,-0.411 0.314,-0.411C0.296,-0.411 0.281,-0.405 0.269,-0.394C0.256,-0.383 0.247,-0.367 0.24,-0.346C0.233,-0.326 0.23,-0.301 0.23,-0.273C0.23,-0.244 0.233,-0.22 0.24,-0.199C0.247,-0.179 0.256,-0.163 0.269,-0.152C0.281,-0.141 0.296,-0.135 0.314,-0.135Z" style="fill:rgb(245,245,245);fill-rule:nonzero;"/>
                </g>
            </g>
            <g id="logo-white.svg" transform="matrix(0.72289,0,0,0.72289,436.928,-887.65)">
                <g transform="matrix(1,0,0,1,-1667,-1667)">
                    <path d="M1538.9,501.121L1549.81,485.633L1589.44,454.792L1624.01,439.574L1666.73,430.989L1716.81,431.931C1733.09,433.808 1754.9,437.718 1783.83,445.707C1869.82,469.449 1913.89,444.107 2055.13,457.541C2413.61,491.638 2560.1,514.629 2625.2,535.464L2685.64,561.446L2726.15,590.671L2758.31,626.949L2779.27,662.677C2814.39,732.458 2827.17,839.332 2831.07,882.703C2850.81,943.007 2846.28,950.615 2846.28,1026.84C2846.28,1483.71 2900.87,1644.27 2874.87,1804.41C2874.85,1804.77 2874.83,1805.13 2874.82,1805.45C2871.93,1872.84 2874.75,2115.13 2873.84,2151.6C2862.24,2613.87 2809.25,2707.15 2697.72,2802.18L2644.77,2832.7L2589.31,2842.89C2549.57,2844.4 2378.04,2827.91 2356.18,2823.63L2306.27,2805.22L2252.62,2757.89C2230.39,2729.03 2142.98,2584.88 2128.17,2533.1C2087.76,2391.84 1874.5,2089.96 1815.57,1911.44C1799.87,1863.88 1806.73,1813.83 1830.88,1773.5C1721.48,1587.04 1570.07,1338.27 1554.06,1308.7C1237.6,724.319 1230.34,623.596 1205.88,551.405C1176.36,464.285 1223.12,369.587 1310.24,340.065C1397.36,310.543 1492.06,357.305 1521.58,444.425C1526.89,460.11 1531.39,477.214 1538.9,501.121ZM2540.32,827.271L2544.34,832.918L2547.87,836.442C2545.46,833.215 2542.94,830.167 2540.32,827.271Z" style="fill:rgb(247,190,22);"/>
                    <path d="M558.987,2618.88C519.934,2594.14 491.287,2553.39 483.477,2504.19C469.055,2413.34 531.104,2327.88 621.952,2313.46C831.995,2280.11 913.971,2235.08 984.673,2194.76C1052.45,2156.1 1113.73,2122.29 1217.6,2098.89C1337.63,2071.85 1327.74,2043.86 1463.36,2010.57C1478.28,2006.91 1611.79,1983.11 1673.73,2000.18L1719.78,2018.94L1756.28,2045.43L1785.63,2080.29L1806.7,2125.12C1820.45,2169.03 1809.79,2282.44 1963.33,2458.26C2021.91,2525.34 2021.55,2525.72 2049.04,2610.62C2066.12,2663.37 2055.85,2721.16 2021.63,2764.8C1987.42,2808.43 1933.74,2832.2 1878.44,2828.19C1714.76,2816.34 1489.55,2751.86 1149.78,2816.92C1054.16,2835.23 919.951,2821.7 810.619,2847.79C770.878,2857.27 743.644,2859.7 726.256,2859.74L666.567,2851.02L618.766,2827.74L583.089,2794.76L561.61,2760.98L548.615,2723.37L547.006,2657.71L558.987,2618.88Z" style="fill:rgb(17,24,39);"/>
                    <path d="M1135.86,642.742L1142.13,645.651L1179.49,673.213C1223.45,713.361 1282.98,856.766 1291.47,877.557C1365.03,1009.59 1421.55,1327.84 1553.84,1636.42C1577.48,1691.58 1593.6,1735.6 1595.28,1764.74L1591.43,1816.15L1578.24,1855.73L1553.48,1895.22L1522.59,1925.2L1486,1947.57L1439.93,1963.55C1317.8,1992.52 1062.96,2113.48 998.476,2125.45C716.703,2177.76 718.219,2214.12 594.297,2256.01L525.435,2266.64L460.102,2251.39L415.639,2222.37L385.062,2186.19L366.908,2148.36L358.045,2110.25C353.861,2078.59 366.85,1976.11 366.85,1694.47C366.85,1661.73 368.248,1435.68 407.198,1287.18C495.275,951.381 463.085,886.586 526.186,711.945L564.025,636.76L606.196,589.021L659.406,552.94L738.174,526.606C787.865,517.026 859.436,518.666 967.517,514.672C1048.34,511.686 1117.92,566.886 1135.86,642.742Z" style="fill:rgb(17,24,39);"/>
                    <path d="M1158.63,696.604L1188.94,723.943C1200.3,736.495 1212.46,751.86 1225.09,770.822C1262.94,827.666 1311.63,929.787 1365.33,1111.18C1453.31,1408.4 1473.64,1398.96 1609.49,1675.76C1631.53,1720.66 1632.23,1773.09 1611.41,1818.57C1590.6,1864.04 1550.45,1897.77 1502.07,1910.43C1471.17,1918.52 1468.74,1909.3 1375.84,1950.44C1296.85,1985.42 1301.99,1992.52 1225.39,2008.96C1119.13,2031.78 1046,2074.52 969.345,2108.97C862.33,2157.06 751.038,2194.71 586.518,2189.23L502.424,2174.34L465.955,2156.86L428.47,2127.1L394.632,2079.68L378.199,2032.6L374.96,1961.74C376.265,1947.86 381.044,1929.68 380.569,1906.81C370.729,1433.39 357.886,1413.32 460.613,948.115C500.052,769.511 464.227,763.389 519.192,600.089C542.669,530.341 609.111,484.246 682.664,486.68C840.807,491.914 839.072,491.718 996.374,491.718C1088.36,491.718 1163.04,566.399 1163.04,658.385C1163.04,671.534 1161.52,684.33 1158.63,696.604Z" style="fill:rgb(135,196,216);"/>
                    <path d="M1111.11,416.667L2222.22,2916.67M416.66,2361.11L1766.82,1892.02M1083.33,2916.67L2250,2916.67C2483.36,2916.67 2600.03,2916.67 2689.17,2871.25C2767.57,2831.31 2831.31,2767.57 2871.25,2689.17C2916.67,2600.03 2916.67,2483.36 2916.67,2250L2916.67,1083.33C2916.67,849.977 2916.67,733.299 2871.25,644.17C2831.31,565.768 2767.57,502.027 2689.17,462.08C2600.03,416.666 2483.36,416.666 2250,416.666L1083.33,416.666C849.975,416.666 733.297,416.666 644.168,462.08C565.766,502.027 502.025,565.768 462.078,644.17C416.664,733.299 416.664,849.977 416.664,1083.33L416.664,2250C416.664,2483.36 416.664,2600.03 462.078,2689.17C502.025,2767.57 565.766,2831.31 644.168,2871.25C733.297,2916.67 849.975,2916.67 1083.33,2916.67Z" style="fill:none;fill-rule:nonzero;stroke:rgb(245,245,245);stroke-width:277.78px;"/>
                </g>
            </g>
        </g>
    </g>
</svg>
