<?xml version="1.0" encoding="UTF-8" standalone="no"?>
<!DOCTYPE svg PUBLIC "-//W3C//DTD SVG 1.1//EN" "http://www.w3.org/Graphics/SVG/1.1/DTD/svg11.dtd">
<svg width="100%" height="100%" viewBox="0 0 3334 3334" version="1.1" xmlns="http://www.w3.org/2000/svg" xmlns:xlink="http://www.w3.org/1999/xlink" xml:space="preserve" xmlns:serif="http://www.serif.com/" style="fill-rule:evenodd;clip-rule:evenodd;stroke-linecap:round;stroke-linejoin:round;">
    <path d="M1538.9,501.121L1549.81,485.633L1589.44,454.792L1624.01,439.574L1666.73,430.989L1716.81,431.931C1733.09,433.808 1754.9,437.718 1783.83,445.707C1869.82,469.449 1913.89,444.107 2055.13,457.541C2413.61,491.638 2560.1,514.629 2625.2,535.464L2685.64,561.446L2726.15,590.671L2758.31,626.949L2779.27,662.677C2814.39,732.458 2827.17,839.332 2831.07,882.703C2850.81,943.007 2846.28,950.615 2846.28,1026.84C2846.28,1483.71 2900.87,1644.27 2874.87,1804.41C2874.85,1804.77 2874.83,1805.13 2874.82,1805.45C2871.93,1872.84 2874.75,2115.13 2873.84,2151.6C2862.24,2613.87 2809.25,2707.15 2697.72,2802.18L2644.77,2832.7L2589.31,2842.89C2549.57,2844.4 2378.04,2827.91 2356.18,2823.63L2306.27,2805.22L2252.62,2757.89C2230.39,2729.03 2142.98,2584.88 2128.17,2533.1C2087.76,2391.84 1874.5,2089.96 1815.57,1911.44C1799.87,1863.88 1806.73,1813.83 1830.88,1773.5C1721.48,1587.04 1570.07,1338.27 1554.06,1308.7C1237.6,724.319 1230.34,623.596 1205.88,551.405C1176.36,464.285 1223.12,369.587 1310.24,340.065C1397.36,310.543 1492.06,357.305 1521.58,444.425C1526.89,460.11 1531.39,477.214 1538.9,501.121ZM2540.32,827.271L2544.34,832.918L2547.87,836.442C2545.46,833.215 2542.94,830.167 2540.32,827.271Z" style="fill:rgb(247,190,22);"/>
    <path d="M558.987,2618.88C519.934,2594.14 491.287,2553.39 483.477,2504.19C469.055,2413.34 531.104,2327.88 621.952,2313.46C831.995,2280.11 913.971,2235.08 984.673,2194.76C1052.45,2156.1 1113.73,2122.29 1217.6,2098.89C1337.63,2071.85 1327.74,2043.86 1463.36,2010.57C1478.28,2006.91 1611.79,1983.11 1673.73,2000.18L1719.78,2018.94L1756.28,2045.43L1785.63,2080.29L1806.7,2125.12C1820.45,2169.03 1809.79,2282.44 1963.33,2458.26C2021.91,2525.34 2021.55,2525.72 2049.04,2610.62C2066.12,2663.37 2055.85,2721.16 2021.63,2764.8C1987.42,2808.43 1933.74,2832.2 1878.44,2828.19C1714.76,2816.34 1489.55,2751.86 1149.78,2816.92C1054.16,2835.23 919.951,2821.7 810.619,2847.79C770.878,2857.27 743.644,2859.7 726.256,2859.74L666.567,2851.02L618.766,2827.74L583.089,2794.76L561.61,2760.98L548.615,2723.37L547.006,2657.71L558.987,2618.88Z" style="fill:rgb(245,245,245);"/>
    <path d="M1135.86,642.742L1142.13,645.651L1179.49,673.213C1223.45,713.361 1282.98,856.766 1291.47,877.557C1365.03,1009.59 1421.55,1327.84 1553.84,1636.42C1577.48,1691.58 1593.6,1735.6 1595.28,1764.74L1591.43,1816.15L1578.24,1855.73L1553.48,1895.22L1522.59,1925.2L1486,1947.57L1439.93,1963.55C1317.8,1992.52 1062.96,2113.48 998.476,2125.45C716.703,2177.76 718.219,2214.12 594.297,2256.01L525.435,2266.64L460.102,2251.39L415.639,2222.37L385.062,2186.19L366.908,2148.36L358.045,2110.25C353.861,2078.59 366.85,1976.11 366.85,1694.47C366.85,1661.73 368.248,1435.68 407.198,1287.18C495.275,951.381 463.085,886.586 526.186,711.945L564.025,636.76L606.196,589.021L659.406,552.94L738.174,526.606C787.865,517.026 859.436,518.666 967.517,514.672C1048.34,511.686 1117.92,566.886 1135.86,642.742Z" style="fill:rgb(17,24,39);"/>
    <path d="M1158.63,696.604L1188.94,723.943C1200.3,736.495 1212.46,751.86 1225.09,770.822C1262.94,827.666 1311.63,929.787 1365.33,1111.18C1453.31,1408.4 1473.64,1398.96 1609.49,1675.76C1631.53,1720.66 1632.23,1773.09 1611.41,1818.57C1590.6,1864.04 1550.45,1897.77 1502.07,1910.43C1471.17,1918.52 1468.74,1909.3 1375.84,1950.44C1296.85,1985.42 1301.99,1992.52 1225.39,2008.96C1119.13,2031.78 1046,2074.52 969.345,2108.97C862.33,2157.06 751.038,2194.71 586.518,2189.23L502.424,2174.34L465.955,2156.86L428.47,2127.1L394.632,2079.68L378.199,2032.6L374.96,1961.74C376.265,1947.86 381.044,1929.68 380.569,1906.81C370.729,1433.39 357.886,1413.32 460.613,948.115C500.052,769.511 464.227,763.389 519.192,600.089C542.669,530.341 609.111,484.246 682.664,486.68C840.807,491.914 839.072,491.718 996.374,491.718C1088.36,491.718 1163.04,566.399 1163.04,658.385C1163.04,671.534 1161.52,684.33 1158.63,696.604Z" style="fill:rgb(135,196,216);"/>
    <path d="M1111.11,416.667L2222.22,2916.67M416.66,2361.11L1766.82,1892.02M1083.33,2916.67L2250,2916.67C2483.36,2916.67 2600.03,2916.67 2689.17,2871.25C2767.57,2831.31 2831.31,2767.57 2871.25,2689.17C2916.67,2600.03 2916.67,2483.36 2916.67,2250L2916.67,1083.33C2916.67,849.977 2916.67,733.299 2871.25,644.17C2831.31,565.768 2767.57,502.027 2689.17,462.08C2600.03,416.666 2483.36,416.666 2250,416.666L1083.33,416.666C849.975,416.666 733.297,416.666 644.168,462.08C565.766,502.027 502.025,565.768 462.078,644.17C416.664,733.299 416.664,849.977 416.664,1083.33L416.664,2250C416.664,2483.36 416.664,2600.03 462.078,2689.17C502.025,2767.57 565.766,2831.31 644.168,2871.25C733.297,2916.67 849.975,2916.67 1083.33,2916.67Z" style="fill:none;fill-rule:nonzero;stroke:rgb(17,24,39);stroke-width:277.78px;"/>
</svg>
